<?xml version="1.0" encoding="UTF-8"?>
<!-- This file is generated by npm run build:icons -->
<svg xmlns="http://www.w3.org/2000/svg" xmlns:xlink="http://www.w3.org/1999/xlink" width="0" height="0">
<defs>
<symbol viewBox="0 0 15 15" fill="none" id="accessibility">
  <path     fill-rule="evenodd"
    clip-rule="evenodd"
    d="M0.877197 7.49984C0.877197 3.84216 3.84234 0.877014 7.50003 0.877014C11.1577 0.877014 14.1229 3.84216 14.1229 7.49984C14.1229 11.1575 11.1577 14.1227 7.50003 14.1227C3.84234 14.1227 0.877197 11.1575 0.877197 7.49984ZM7.50003 1.82701C4.36702 1.82701 1.8272 4.36683 1.8272 7.49984C1.8272 10.6328 4.36702 13.1727 7.50003 13.1727C10.633 13.1727 13.1729 10.6328 13.1729 7.49984C13.1729 4.36683 10.633 1.82701 7.50003 1.82701ZM7.12457 9.00001C7.06994 9.12735 6.33165 11.9592 6.33165 11.9592C6.26018 12.226 5.98601 12.3843 5.71928 12.3128C5.45255 12.2413 5.29425 11.9672 5.36573 11.7004C5.36573 11.7004 6.24661 8.87268 6.24661 8.27007V6.80099L4.28763 6.27608C4.0209 6.20461 3.86261 5.93045 3.93408 5.66371C4.00555 5.39698 4.27972 5.23869 4.54645 5.31016C4.54645 5.31016 6.20042 5.87268 6.84579 5.87268H8.15505C8.80042 5.87268 10.4534 5.31042 10.4534 5.31042C10.7202 5.23895 10.9943 5.39724 11.0658 5.66397C11.1373 5.93071 10.979 6.20487 10.7122 6.27635L8.74661 6.80303V8.27007C8.74661 8.87268 9.62663 11.6971 9.62663 11.6971C9.6981 11.9639 9.5398 12.238 9.27307 12.3095C9.00634 12.381 8.73217 12.2227 8.6607 11.956C8.6607 11.956 7.91994 9.12735 7.86866 9.00001C7.81994 8.87268 7.65006 8.87268 7.65006 8.87268H7.34317C7.34317 8.87268 7.16994 8.87268 7.12457 9.00001ZM7.50043 5.12007C8.12175 5.12007 8.62543 4.61639 8.62543 3.99507C8.62543 3.37375 8.12175 2.87007 7.50043 2.87007C6.87911 2.87007 6.37543 3.37375 6.37543 3.99507C6.37543 4.61639 6.87911 5.12007 7.50043 5.12007Z"
    fill="currentColor"
  ></path>
</symbol>
<symbol viewBox="0 0 15 15" fill="none" id="activity-log">
  <path     fill-rule="evenodd"
    clip-rule="evenodd"
    d="M0 1.5C0 1.22386 0.223858 1 0.5 1H2.5C2.77614 1 3 1.22386 3 1.5C3 1.77614 2.77614 2 2.5 2H0.5C0.223858 2 0 1.77614 0 1.5ZM4 1.5C4 1.22386 4.22386 1 4.5 1H14.5C14.7761 1 15 1.22386 15 1.5C15 1.77614 14.7761 2 14.5 2H4.5C4.22386 2 4 1.77614 4 1.5ZM4 4.5C4 4.22386 4.22386 4 4.5 4H11.5C11.7761 4 12 4.22386 12 4.5C12 4.77614 11.7761 5 11.5 5H4.5C4.22386 5 4 4.77614 4 4.5ZM0 7.5C0 7.22386 0.223858 7 0.5 7H2.5C2.77614 7 3 7.22386 3 7.5C3 7.77614 2.77614 8 2.5 8H0.5C0.223858 8 0 7.77614 0 7.5ZM4 7.5C4 7.22386 4.22386 7 4.5 7H14.5C14.7761 7 15 7.22386 15 7.5C15 7.77614 14.7761 8 14.5 8H4.5C4.22386 8 4 7.77614 4 7.5ZM4 10.5C4 10.2239 4.22386 10 4.5 10H11.5C11.7761 10 12 10.2239 12 10.5C12 10.7761 11.7761 11 11.5 11H4.5C4.22386 11 4 10.7761 4 10.5ZM0 13.5C0 13.2239 0.223858 13 0.5 13H2.5C2.77614 13 3 13.2239 3 13.5C3 13.7761 2.77614 14 2.5 14H0.5C0.223858 14 0 13.7761 0 13.5ZM4 13.5C4 13.2239 4.22386 13 4.5 13H14.5C14.7761 13 15 13.2239 15 13.5C15 13.7761 14.7761 14 14.5 14H4.5C4.22386 14 4 13.7761 4 13.5Z"
    fill="currentColor"
  ></path>
</symbol>
<symbol viewBox="0 0 15 15" fill="none" id="align-baseline">
  <path     fill-rule="evenodd"
    clip-rule="evenodd"
    d="M10.5 1.75003C10.7107 1.75003 10.8988 1.88217 10.9703 2.08042L13.9703 10.4C14.064 10.6598 13.9293 10.9463 13.6696 11.04C13.4098 11.1336 13.1233 10.999 13.0296 10.7392L12.0477 8.01606H8.95227L7.97031 10.7392C7.87664 10.999 7.59012 11.1336 7.33035 11.04C7.07058 10.9463 6.93593 10.6598 7.0296 10.4L10.0296 2.08042C10.1011 1.88217 10.2892 1.75003 10.5 1.75003ZM10.5 3.72402L11.7411 7.16606H9.25877L10.5 3.72402ZM2.49949 2.09997C2.7204 2.09997 2.89949 2.27906 2.89949 2.49997L2.89949 9.53428L4.21664 8.21713C4.37285 8.06092 4.62612 8.06092 4.78233 8.21713C4.93854 8.37334 4.93854 8.6266 4.78233 8.78281L2.78233 10.7828C2.70732 10.8578 2.60557 10.9 2.49949 10.9C2.3934 10.9 2.29166 10.8578 2.21664 10.7828L0.216645 8.78281C0.0604349 8.6266 0.0604349 8.37334 0.216645 8.21713C0.372854 8.06092 0.62612 8.06092 0.78233 8.21713L2.09949 9.53428L2.09949 2.49997C2.09949 2.27906 2.27857 2.09997 2.49949 2.09997ZM0.0999695 13.5001C0.0999695 13.2791 0.279056 13.1001 0.499969 13.1001H14.5C14.7209 13.1001 14.9 13.2791 14.9 13.5001C14.9 13.721 14.7209 13.9001 14.5 13.9001H0.499969C0.279056 13.9001 0.0999695 13.721 0.0999695 13.5001Z"
    fill="currentColor"
  ></path>
</symbol>
<symbol viewBox="0 0 15 15" fill="none" id="align-bottom">
  <path     fill-rule="evenodd"
    clip-rule="evenodd"
    d="M9 3C9 2.44772 8.55229 2 8 2H7C6.44772 2 6 2.44772 6 3L6 14H1.5C1.22386 14 1 14.2239 1 14.5C1 14.7761 1.22386 15 1.5 15L6 15H9H13.5C13.7761 15 14 14.7761 14 14.5C14 14.2239 13.7761 14 13.5 14H9V3Z"
    fill="currentColor"
  ></path>
</symbol>
<symbol viewBox="0 0 15 15" fill="none" id="align-center-horizontally">
  <path     fill-rule="evenodd"
    clip-rule="evenodd"
    d="M1.99988 6C1.44759 6 0.999877 6.44772 0.999877 7L0.999877 8C0.999877 8.55228 1.44759 9 1.99988 9L6.99988 9L6.99988 13.5C6.99988 13.7761 7.22374 14 7.49988 14C7.77602 14 7.99988 13.7761 7.99988 13.5L7.99988 9L12.9999 9C13.5522 9 13.9999 8.55228 13.9999 8L13.9999 7C13.9999 6.44772 13.5522 6 12.9999 6L7.99988 6L7.99988 1.5C7.99988 1.22386 7.77602 1 7.49988 1C7.22373 1 6.99988 1.22386 6.99988 1.5L6.99988 6L1.99988 6Z"
    fill="currentColor"
  ></path>
</symbol>
<symbol viewBox="0 0 15 15" fill="none" id="align-center-vertically">
  <path     fill-rule="evenodd"
    clip-rule="evenodd"
    d="M6.99988 1C6.44759 1 5.99988 1.44772 5.99988 2V7H1.49988C1.22374 7 0.999878 7.22386 0.999878 7.5C0.999878 7.77614 1.22374 8 1.49988 8H5.99988V13C5.99988 13.5523 6.44759 14 6.99988 14H7.99988C8.55216 14 8.99988 13.5523 8.99988 13V8H13.4999C13.776 8 13.9999 7.77614 13.9999 7.5C13.9999 7.22386 13.776 7 13.4999 7H8.99988V2C8.99988 1.44772 8.55216 1 7.99988 1L6.99988 1Z"
    fill="currentColor"
  ></path>
</symbol>
<symbol viewBox="0 0 15 15" fill="none" id="align-left">
  <path     fill-rule="evenodd"
    clip-rule="evenodd"
    d="M0.499995 0.999995C0.223855 0.999995 -5.58458e-07 1.22385 -5.46388e-07 1.49999L-2.18554e-08 13.4999C-9.78492e-09 13.776 0.223855 13.9999 0.499995 13.9999C0.776136 13.9999 0.999991 13.776 0.999991 13.4999L0.999991 8.99993L12 8.99993C12.5523 8.99993 13 8.55222 13 7.99993L13 6.99994C13 6.44766 12.5523 5.99995 12 5.99995L0.999991 5.99995L0.999991 1.49999C0.999991 1.22385 0.776135 0.999995 0.499995 0.999995Z"
    fill="currentColor"
  ></path>
</symbol>
<symbol viewBox="0 0 15 15" fill="none" id="align-right">
  <path     fill-rule="evenodd"
    clip-rule="evenodd"
    d="M14.4999 1C14.2237 1 13.9999 1.22386 13.9999 1.5L13.9999 6L2.99988 6C2.44759 6 1.99988 6.44772 1.99988 7L1.99988 8C1.99988 8.55228 2.44759 9 2.99988 9L13.9999 9L13.9999 13.5C13.9999 13.7761 14.2237 14 14.4999 14C14.776 14 14.9999 13.7761 14.9999 13.5L14.9999 9L14.9999 6L14.9999 1.5C14.9999 1.22386 14.776 1 14.4999 1Z"
    fill="currentColor"
  ></path>
</symbol>
<symbol viewBox="0 0 15 15" fill="none" id="align-top">
  <path     fill-rule="evenodd"
    clip-rule="evenodd"
    d="M1.5 0C1.22386 0 1 0.223858 1 0.5C1 0.776142 1.22386 1 1.5 1H6V12C6 12.5523 6.44772 13 7 13H8C8.55228 13 9 12.5523 9 12V1H13.5C13.7761 1 14 0.776142 14 0.5C14 0.223858 13.7761 0 13.5 0H9H6H1.5Z"
    fill="currentColor"
  ></path>
</symbol>
<symbol viewBox="0 0 15 15" fill="none" id="all-sides">
  <path     fill-rule="evenodd"
    clip-rule="evenodd"
    d="M7.5 0.75L9.75 3H5.25L7.5 0.75ZM7.5 14.25L9.75 12H5.25L7.5 14.25ZM3 5.25L0.75 7.5L3 9.75V5.25ZM14.25 7.5L12 5.25V9.75L14.25 7.5Z"
    fill="currentColor"
  ></path>
</symbol>
<symbol viewBox="0 0 15 15" fill="none" id="angle">
  <path     fill-rule="evenodd"
    clip-rule="evenodd"
    d="M8.8914 2.1937C9.1158 2.35464 9.16725 2.66701 9.00631 2.89141L2.47388 12H13.5C13.7761 12 14 12.2239 14 12.5C14 12.7762 13.7761 13 13.5 13H1.5C1.31254 13 1.14082 12.8952 1.0552 12.7284C0.969578 12.5616 0.984438 12.361 1.09369 12.2086L8.19369 2.30862C8.35462 2.08422 8.667 2.03277 8.8914 2.1937ZM11.1 6.50001C11.1 6.22387 11.3238 6.00001 11.6 6.00001C11.8761 6.00001 12.1 6.22387 12.1 6.50001C12.1 6.77615 11.8761 7.00001 11.6 7.00001C11.3238 7.00001 11.1 6.77615 11.1 6.50001ZM10.4 4.00001C10.1239 4.00001 9.90003 4.22387 9.90003 4.50001C9.90003 4.77615 10.1239 5.00001 10.4 5.00001C10.6762 5.00001 10.9 4.77615 10.9 4.50001C10.9 4.22387 10.6762 4.00001 10.4 4.00001ZM12.1 8.50001C12.1 8.22387 12.3238 8.00001 12.6 8.00001C12.8761 8.00001 13.1 8.22387 13.1 8.50001C13.1 8.77615 12.8761 9.00001 12.6 9.00001C12.3238 9.00001 12.1 8.77615 12.1 8.50001ZM13.4 10C13.1239 10 12.9 10.2239 12.9 10.5C12.9 10.7761 13.1239 11 13.4 11C13.6762 11 13.9 10.7761 13.9 10.5C13.9 10.2239 13.6762 10 13.4 10Z"
    fill="currentColor"
  ></path>
</symbol>
<symbol viewBox="0 0 15 15" fill="none" id="archive">
  <path     fill-rule="evenodd"
    clip-rule="evenodd"
    d="M3.30902 1C2.93025 1 2.58398 1.214 2.41459 1.55279L1.05279 4.27639C1.01807 4.34582 1 4.42238 1 4.5V13C1 13.5523 1.44772 14 2 14H13C13.5523 14 14 13.5523 14 13V4.5C14 4.42238 13.9819 4.34582 13.9472 4.27639L12.5854 1.55281C12.416 1.21403 12.0698 1.00003 11.691 1.00003L7.5 1.00001L3.30902 1ZM3.30902 2L7 2.00001V4H2.30902L3.30902 2ZM8 4V2.00002L11.691 2.00003L12.691 4H8ZM7.5 5H13V13H2V5H7.5ZM5.5 7C5.22386 7 5 7.22386 5 7.5C5 7.77614 5.22386 8 5.5 8H9.5C9.77614 8 10 7.77614 10 7.5C10 7.22386 9.77614 7 9.5 7H5.5Z"
    fill="currentColor"
  ></path>
</symbol>
<symbol viewBox="0 0 15 15" fill="none" id="arrow-bottom-left">
  <path     fill-rule="evenodd"
    clip-rule="evenodd"
    d="M11.3536 3.64644C11.5488 3.8417 11.5488 4.15828 11.3536 4.35354L4.70711 11L9 11C9.27614 11 9.5 11.2239 9.5 11.5C9.5 11.7761 9.27614 12 9 12L3.5 12C3.36739 12 3.24021 11.9473 3.14645 11.8536C3.05268 11.7598 3 11.6326 3 11.5L3 5.99999C3 5.72385 3.22386 5.49999 3.5 5.49999C3.77614 5.49999 4 5.72385 4 5.99999V10.2929L10.6464 3.64643C10.8417 3.45117 11.1583 3.45117 11.3536 3.64644Z"
    fill="currentColor"
  ></path>
</symbol>
<symbol viewBox="0 0 15 15" fill="none" id="arrow-bottom-right">
  <path     fill-rule="evenodd"
    clip-rule="evenodd"
    d="M3.64645 3.64644C3.45118 3.8417 3.45118 4.15828 3.64645 4.35354L10.2929 11L6 11C5.72386 11 5.5 11.2239 5.5 11.5C5.5 11.7761 5.72386 12 6 12L11.5 12C11.6326 12 11.7598 11.9473 11.8536 11.8536C11.9473 11.7598 12 11.6326 12 11.5L12 5.99999C12 5.72385 11.7761 5.49999 11.5 5.49999C11.2239 5.49999 11 5.72385 11 5.99999V10.2929L4.35355 3.64643C4.15829 3.45117 3.84171 3.45117 3.64645 3.64644Z"
    fill="currentColor"
  ></path>
</symbol>
<symbol viewBox="0 0 15 15" fill="none" id="arrow-down">
  <path     fill-rule="evenodd"
    clip-rule="evenodd"
    d="M7.5 2C7.77614 2 8 2.22386 8 2.5L8 11.2929L11.1464 8.14645C11.3417 7.95118 11.6583 7.95118 11.8536 8.14645C12.0488 8.34171 12.0488 8.65829 11.8536 8.85355L7.85355 12.8536C7.75979 12.9473 7.63261 13 7.5 13C7.36739 13 7.24021 12.9473 7.14645 12.8536L3.14645 8.85355C2.95118 8.65829 2.95118 8.34171 3.14645 8.14645C3.34171 7.95118 3.65829 7.95118 3.85355 8.14645L7 11.2929L7 2.5C7 2.22386 7.22386 2 7.5 2Z"
    fill="currentColor"
  ></path>
</symbol>
<symbol viewBox="0 0 15 15" fill="none" id="arrow-left">
  <path     fill-rule="evenodd"
    clip-rule="evenodd"
    d="M6.85355 3.14645C7.04882 3.34171 7.04882 3.65829 6.85355 3.85355L3.70711 7H12.5C12.7761 7 13 7.22386 13 7.5C13 7.77614 12.7761 8 12.5 8H3.70711L6.85355 11.1464C7.04882 11.3417 7.04882 11.6583 6.85355 11.8536C6.65829 12.0488 6.34171 12.0488 6.14645 11.8536L2.14645 7.85355C1.95118 7.65829 1.95118 7.34171 2.14645 7.14645L6.14645 3.14645C6.34171 2.95118 6.65829 2.95118 6.85355 3.14645Z"
    fill="currentColor"
  ></path>
</symbol>
<symbol viewBox="0 0 15 15" fill="none" id="arrow-right">
  <path     fill-rule="evenodd"
    clip-rule="evenodd"
    d="M8.14645 3.14645C8.34171 2.95118 8.65829 2.95118 8.85355 3.14645L12.8536 7.14645C13.0488 7.34171 13.0488 7.65829 12.8536 7.85355L8.85355 11.8536C8.65829 12.0488 8.34171 12.0488 8.14645 11.8536C7.95118 11.6583 7.95118 11.3417 8.14645 11.1464L11.2929 8H2.5C2.22386 8 2 7.77614 2 7.5C2 7.22386 2.22386 7 2.5 7H11.2929L8.14645 3.85355C7.95118 3.65829 7.95118 3.34171 8.14645 3.14645Z"
    fill="currentColor"
  ></path>
</symbol>
<symbol viewBox="0 0 15 15" fill="none" id="arrow-top-left">
  <path     fill-rule="evenodd"
    clip-rule="evenodd"
    d="M11.3536 11.3536C11.5488 11.1583 11.5488 10.8417 11.3536 10.6465L4.70711 4L9 4C9.27614 4 9.5 3.77614 9.5 3.5C9.5 3.22386 9.27614 3 9 3L3.5 3C3.36739 3 3.24021 3.05268 3.14645 3.14645C3.05268 3.24022 3 3.36739 3 3.5L3 9.00001C3 9.27615 3.22386 9.50001 3.5 9.50001C3.77614 9.50001 4 9.27615 4 9.00001V4.70711L10.6464 11.3536C10.8417 11.5488 11.1583 11.5488 11.3536 11.3536Z"
    fill="currentColor"
  ></path>
</symbol>
<symbol viewBox="0 0 15 15" fill="none" id="arrow-top-right">
  <path     fill-rule="evenodd"
    clip-rule="evenodd"
    d="M3.64645 11.3536C3.45118 11.1583 3.45118 10.8417 3.64645 10.6465L10.2929 4L6 4C5.72386 4 5.5 3.77614 5.5 3.5C5.5 3.22386 5.72386 3 6 3L11.5 3C11.6326 3 11.7598 3.05268 11.8536 3.14645C11.9473 3.24022 12 3.36739 12 3.5L12 9.00001C12 9.27615 11.7761 9.50001 11.5 9.50001C11.2239 9.50001 11 9.27615 11 9.00001V4.70711L4.35355 11.3536C4.15829 11.5488 3.84171 11.5488 3.64645 11.3536Z"
    fill="currentColor"
  ></path>
</symbol>
<symbol viewBox="0 0 15 15" fill="none" id="arrow-up">
  <path     fill-rule="evenodd"
    clip-rule="evenodd"
    d="M7.14645 2.14645C7.34171 1.95118 7.65829 1.95118 7.85355 2.14645L11.8536 6.14645C12.0488 6.34171 12.0488 6.65829 11.8536 6.85355C11.6583 7.04882 11.3417 7.04882 11.1464 6.85355L8 3.70711L8 12.5C8 12.7761 7.77614 13 7.5 13C7.22386 13 7 12.7761 7 12.5L7 3.70711L3.85355 6.85355C3.65829 7.04882 3.34171 7.04882 3.14645 6.85355C2.95118 6.65829 2.95118 6.34171 3.14645 6.14645L7.14645 2.14645Z"
    fill="currentColor"
  ></path>
</symbol>
<symbol viewBox="0 0 15 15" fill="none" id="aspect-ratio">
  <path     fill-rule="evenodd"
    clip-rule="evenodd"
    d="M2.5 2H12.5C12.7761 2 13 2.22386 13 2.5V12.5C13 12.7761 12.7761 13 12.5 13H2.5C2.22386 13 2 12.7761 2 12.5V2.5C2 2.22386 2.22386 2 2.5 2ZM1 2.5C1 1.67157 1.67157 1 2.5 1H12.5C13.3284 1 14 1.67157 14 2.5V12.5C14 13.3284 13.3284 14 12.5 14H2.5C1.67157 14 1 13.3284 1 12.5V2.5ZM7.5 4C7.77614 4 8 3.77614 8 3.5C8 3.22386 7.77614 3 7.5 3C7.22386 3 7 3.22386 7 3.5C7 3.77614 7.22386 4 7.5 4ZM8 5.5C8 5.77614 7.77614 6 7.5 6C7.22386 6 7 5.77614 7 5.5C7 5.22386 7.22386 5 7.5 5C7.77614 5 8 5.22386 8 5.5ZM7.5 8C7.77614 8 8 7.77614 8 7.5C8 7.22386 7.77614 7 7.5 7C7.22386 7 7 7.22386 7 7.5C7 7.77614 7.22386 8 7.5 8ZM10 7.5C10 7.77614 9.77614 8 9.5 8C9.22386 8 9 7.77614 9 7.5C9 7.22386 9.22386 7 9.5 7C9.77614 7 10 7.22386 10 7.5ZM11.5 8C11.7761 8 12 7.77614 12 7.5C12 7.22386 11.7761 7 11.5 7C11.2239 7 11 7.22386 11 7.5C11 7.77614 11.2239 8 11.5 8Z"
    fill="currentColor"
  ></path>
</symbol>
<symbol viewBox="0 0 15 15" fill="none" id="avatar">
  <path     fill-rule="evenodd"
    clip-rule="evenodd"
    d="M0.877014 7.49988C0.877014 3.84219 3.84216 0.877045 7.49985 0.877045C11.1575 0.877045 14.1227 3.84219 14.1227 7.49988C14.1227 11.1575 11.1575 14.1227 7.49985 14.1227C3.84216 14.1227 0.877014 11.1575 0.877014 7.49988ZM7.49985 1.82704C4.36683 1.82704 1.82701 4.36686 1.82701 7.49988C1.82701 8.97196 2.38774 10.3131 3.30727 11.3213C4.19074 9.94119 5.73818 9.02499 7.50023 9.02499C9.26206 9.02499 10.8093 9.94097 11.6929 11.3208C12.6121 10.3127 13.1727 8.97172 13.1727 7.49988C13.1727 4.36686 10.6328 1.82704 7.49985 1.82704ZM10.9818 11.9787C10.2839 10.7795 8.9857 9.97499 7.50023 9.97499C6.01458 9.97499 4.71624 10.7797 4.01845 11.9791C4.97952 12.7272 6.18765 13.1727 7.49985 13.1727C8.81227 13.1727 10.0206 12.727 10.9818 11.9787ZM5.14999 6.50487C5.14999 5.207 6.20212 4.15487 7.49999 4.15487C8.79786 4.15487 9.84999 5.207 9.84999 6.50487C9.84999 7.80274 8.79786 8.85487 7.49999 8.85487C6.20212 8.85487 5.14999 7.80274 5.14999 6.50487ZM7.49999 5.10487C6.72679 5.10487 6.09999 5.73167 6.09999 6.50487C6.09999 7.27807 6.72679 7.90487 7.49999 7.90487C8.27319 7.90487 8.89999 7.27807 8.89999 6.50487C8.89999 5.73167 8.27319 5.10487 7.49999 5.10487Z"
    fill="currentColor"
  ></path>
</symbol>
<symbol viewBox="0 0 15 15" fill="none" id="backpack">
  <path     fill-rule="evenodd"
    clip-rule="evenodd"
    d="M5 1C5 0.447715 5.44772 0 6 0H9C9.55228 0 10 0.447715 10 1V2H14C14.5523 2 15 2.44772 15 3V6C15 6.8888 14.6131 7.68734 14 8.23608V11.5C14 12.3284 13.3284 13 12.5 13H2.5C1.67157 13 1 12.3284 1 11.5V8.2359C0.38697 7.68721 0 6.88883 0 6V3C0 2.44772 0.447716 2 1 2H5V1ZM9 1V2H6V1H9ZM1 3H5H5.5H9.5H10H14V6C14 6.654 13.6866 7.23467 13.1997 7.6004C12.8655 7.85144 12.4508 8 12 8H8V7.5C8 7.22386 7.77614 7 7.5 7C7.22386 7 7 7.22386 7 7.5V8H3C2.5493 8 2.1346 7.85133 1.80029 7.60022C1.31335 7.23446 1 6.65396 1 6V3ZM7 9H3C2.64961 9 2.31292 8.93972 2 8.82905V11.5C2 11.7761 2.22386 12 2.5 12H12.5C12.7761 12 13 11.7761 13 11.5V8.82915C12.6871 8.93978 12.3504 9 12 9H8V9.5C8 9.77614 7.77614 10 7.5 10C7.22386 10 7 9.77614 7 9.5V9Z"
    fill="currentColor"
  ></path>
</symbol>
<symbol viewBox="0 0 15 15" fill="none" id="badge">
  <path     fill-rule="evenodd"
    clip-rule="evenodd"
    d="M3.5 6H11.5C12.3284 6 13 6.67157 13 7.5C13 8.32843 12.3284 9 11.5 9H3.5C2.67157 9 2 8.32843 2 7.5C2 6.67157 2.67157 6 3.5 6ZM1 7.5C1 6.11929 2.11929 5 3.5 5H11.5C12.8807 5 14 6.11929 14 7.5C14 8.88071 12.8807 10 11.5 10H3.5C2.11929 10 1 8.88071 1 7.5ZM4.5 7C4.22386 7 4 7.22386 4 7.5C4 7.77614 4.22386 8 4.5 8H10.5C10.7761 8 11 7.77614 11 7.5C11 7.22386 10.7761 7 10.5 7H4.5Z"
    fill="currentColor"
  ></path>
</symbol>
<symbol viewBox="0 0 15 15" fill="none" id="bar-chart">
  <path     fill-rule="evenodd"
    clip-rule="evenodd"
    d="M11.5 1C11.7761 1 12 1.22386 12 1.5V13.5C12 13.7761 11.7761 14 11.5 14C11.2239 14 11 13.7761 11 13.5V1.5C11 1.22386 11.2239 1 11.5 1ZM9.5 3C9.77614 3 10 3.22386 10 3.5V13.5C10 13.7761 9.77614 14 9.5 14C9.22386 14 9 13.7761 9 13.5V3.5C9 3.22386 9.22386 3 9.5 3ZM13.5 3C13.7761 3 14 3.22386 14 3.5V13.5C14 13.7761 13.7761 14 13.5 14C13.2239 14 13 13.7761 13 13.5V3.5C13 3.22386 13.2239 3 13.5 3ZM5.5 4C5.77614 4 6 4.22386 6 4.5V13.5C6 13.7761 5.77614 14 5.5 14C5.22386 14 5 13.7761 5 13.5V4.5C5 4.22386 5.22386 4 5.5 4ZM1.5 5C1.77614 5 2 5.22386 2 5.5V13.5C2 13.7761 1.77614 14 1.5 14C1.22386 14 1 13.7761 1 13.5V5.5C1 5.22386 1.22386 5 1.5 5ZM7.5 5C7.77614 5 8 5.22386 8 5.5V13.5C8 13.7761 7.77614 14 7.5 14C7.22386 14 7 13.7761 7 13.5V5.5C7 5.22386 7.22386 5 7.5 5ZM3.5 7C3.77614 7 4 7.22386 4 7.5V13.5C4 13.7761 3.77614 14 3.5 14C3.22386 14 3 13.7761 3 13.5V7.5C3 7.22386 3.22386 7 3.5 7Z"
    fill="currentColor"
  ></path>
</symbol>
<symbol viewBox="0 0 15 15" fill="none" id="bell">
  <path     fill-rule="evenodd"
    clip-rule="evenodd"
    d="M8.60124 1.25086C8.60124 1.75459 8.26278 2.17927 7.80087 2.30989C10.1459 2.4647 12 4.41582 12 6.79999V10.25C12 11.0563 12.0329 11.7074 12.7236 12.0528C12.931 12.1565 13.0399 12.3892 12.9866 12.6149C12.9333 12.8406 12.7319 13 12.5 13H8.16144C8.36904 13.1832 8.49997 13.4513 8.49997 13.75C8.49997 14.3023 8.05226 14.75 7.49997 14.75C6.94769 14.75 6.49997 14.3023 6.49997 13.75C6.49997 13.4513 6.63091 13.1832 6.83851 13H2.49999C2.2681 13 2.06664 12.8406 2.01336 12.6149C1.96009 12.3892 2.06897 12.1565 2.27638 12.0528C2.96708 11.7074 2.99999 11.0563 2.99999 10.25V6.79999C2.99999 4.41537 4.85481 2.46396 7.20042 2.3098C6.73867 2.17908 6.40036 1.75448 6.40036 1.25086C6.40036 0.643104 6.89304 0.150421 7.5008 0.150421C8.10855 0.150421 8.60124 0.643104 8.60124 1.25086ZM7.49999 3.29999C5.56699 3.29999 3.99999 4.86699 3.99999 6.79999V10.25L4.00002 10.3009C4.0005 10.7463 4.00121 11.4084 3.69929 12H11.3007C10.9988 11.4084 10.9995 10.7463 11 10.3009L11 10.25V6.79999C11 4.86699 9.43299 3.29999 7.49999 3.29999Z"
    fill="currentColor"
  ></path>
</symbol>
<symbol viewBox="0 0 15 15" fill="none" id="blending-mode">
  <path     fill-rule="evenodd"
    clip-rule="evenodd"
    d="M3 9C3 6.5 4.5 4.25 7.5 1.5C10.5 4.25 12 6.5 12 9C12 11.4853 9.98528 13.5 7.5 13.5C5.01472 13.5 3 11.4853 3 9ZM10.9524 8.30307C9.67347 7.82121 8.2879 8.46208 6.98956 9.06259C5.9327 9.55142 4.93365 10.0135 4.09695 9.82153C4.03357 9.55804 4 9.28294 4 9C4 7.11203 5.02686 5.27195 7.5 2.87357C9.66837 4.97639 10.725 6.65004 10.9524 8.30307Z"
    fill="currentColor"
  ></path>
</symbol>
<symbol viewBox="0 0 15 15" fill="none" id="bookmark-filled">
  <path     fill-rule="evenodd"
    clip-rule="evenodd"
    d="M3.5 2C3.22386 2 3 2.22386 3 2.5V13.5C3 13.6818 3.09864 13.8492 3.25762 13.9373C3.41659 14.0254 3.61087 14.0203 3.765 13.924L7.5 11.5896L11.235 13.924C11.3891 14.0203 11.5834 14.0254 11.7424 13.9373C11.9014 13.8492 12 13.6818 12 13.5V2.5C12 2.22386 11.7761 2 11.5 2H3.5Z"
    fill="currentColor"
  ></path>
</symbol>
<symbol viewBox="0 0 15 15" fill="none" id="bookmark">
  <path     fill-rule="evenodd"
    clip-rule="evenodd"
    d="M3 2.5C3 2.22386 3.22386 2 3.5 2H11.5C11.7761 2 12 2.22386 12 2.5V13.5C12 13.6818 11.9014 13.8492 11.7424 13.9373C11.5834 14.0254 11.3891 14.0203 11.235 13.924L7.5 11.5896L3.765 13.924C3.61087 14.0203 3.41659 14.0254 3.25762 13.9373C3.09864 13.8492 3 13.6818 3 13.5V2.5ZM4 3V12.5979L6.97 10.7416C7.29427 10.539 7.70573 10.539 8.03 10.7416L11 12.5979V3H4Z"
    fill="currentColor"
  ></path>
</symbol>
<symbol viewBox="0 0 15 15" fill="none" id="border-all">
  <path     fill-rule="evenodd"
    clip-rule="evenodd"
    d="M0.25 1C0.25 0.585786 0.585786 0.25 1 0.25H14C14.4142 0.25 14.75 0.585786 14.75 1V14C14.75 14.4142 14.4142 14.75 14 14.75H1C0.585786 14.75 0.25 14.4142 0.25 14V1ZM1.75 1.75V13.25H13.25V1.75H1.75Z"
    fill="currentColor"
  ></path>
  <rect x="7" y="5" width="1" height="1" rx=".5" fill="currentColor" ></rect>
  <rect x="7" y="3" width="1" height="1" rx=".5" fill="currentColor" ></rect>
  <rect x="7" y="7" width="1" height="1" rx=".5" fill="currentColor" ></rect>
  <rect x="5" y="7" width="1" height="1" rx=".5" fill="currentColor" ></rect>
  <rect x="3" y="7" width="1" height="1" rx=".5" fill="currentColor" ></rect>
  <rect x="9" y="7" width="1" height="1" rx=".5" fill="currentColor" ></rect>
  <rect x="11" y="7" width="1" height="1" rx=".5" fill="currentColor" ></rect>
  <rect x="7" y="9" width="1" height="1" rx=".5" fill="currentColor" ></rect>
  <rect x="7" y="11" width="1" height="1" rx=".5" fill="currentColor" ></rect>
</symbol>
<symbol viewBox="0 0 15 15" fill="none" id="border-bottom">
  <path fill-rule="evenodd" clip-rule="evenodd" d="M1 13.25L14 13.25V14.75L1 14.75V13.25Z" fill="currentColor" ></path>
  <rect x="7" y="5" width="1" height="1" rx=".5" fill="currentColor" ></rect>
  <rect x="13" y="5" width="1" height="1" rx=".5" fill="currentColor" ></rect>
  <rect x="7" y="3" width="1" height="1" rx=".5" fill="currentColor" ></rect>
  <rect x="13" y="3" width="1" height="1" rx=".5" fill="currentColor" ></rect>
  <rect x="7" y="7" width="1" height="1" rx=".5" fill="currentColor" ></rect>
  <rect x="7" y="1" width="1" height="1" rx=".5" fill="currentColor" ></rect>
  <rect x="13" y="7" width="1" height="1" rx=".5" fill="currentColor" ></rect>
  <rect x="13" y="1" width="1" height="1" rx=".5" fill="currentColor" ></rect>
  <rect x="5" y="7" width="1" height="1" rx=".5" fill="currentColor" ></rect>
  <rect x="5" y="1" width="1" height="1" rx=".5" fill="currentColor" ></rect>
  <rect x="3" y="7" width="1" height="1" rx=".5" fill="currentColor" ></rect>
  <rect x="3" y="1" width="1" height="1" rx=".5" fill="currentColor" ></rect>
  <rect x="9" y="7" width="1" height="1" rx=".5" fill="currentColor" ></rect>
  <rect x="9" y="1" width="1" height="1" rx=".5" fill="currentColor" ></rect>
  <rect x="11" y="7" width="1" height="1" rx=".5" fill="currentColor" ></rect>
  <rect x="11" y="1" width="1" height="1" rx=".5" fill="currentColor" ></rect>
  <rect x="7" y="9" width="1" height="1" rx=".5" fill="currentColor" ></rect>
  <rect x="13" y="9" width="1" height="1" rx=".5" fill="currentColor" ></rect>
  <rect x="7" y="11" width="1" height="1" rx=".5" fill="currentColor" ></rect>
  <rect x="13" y="11" width="1" height="1" rx=".5" fill="currentColor" ></rect>
  <rect x="1" y="5" width="1" height="1" rx=".5" fill="currentColor" ></rect>
  <rect x="1" y="3" width="1" height="1" rx=".5" fill="currentColor" ></rect>
  <rect x="1" y="7" width="1" height="1" rx=".5" fill="currentColor" ></rect>
  <rect x="1" y="1" width="1" height="1" rx=".5" fill="currentColor" ></rect>
  <rect x="1" y="9" width="1" height="1" rx=".5" fill="currentColor" ></rect>
  <rect x="1" y="11" width="1" height="1" rx=".5" fill="currentColor" ></rect>
</symbol>
<symbol viewBox="0 0 15 15" fill="none" id="border-dashed">
  <path     fill-rule="evenodd"
    clip-rule="evenodd"
    d="M0 7.5C0 7.22386 0.223858 7 0.5 7H3C3.27614 7 3.5 7.22386 3.5 7.5C3.5 7.77614 3.27614 8 3 8H0.5C0.223858 8 0 7.77614 0 7.5ZM5.75 7.5C5.75 7.22386 5.97386 7 6.25 7H8.75C9.02614 7 9.25 7.22386 9.25 7.5C9.25 7.77614 9.02614 8 8.75 8H6.25C5.97386 8 5.75 7.77614 5.75 7.5ZM12 7C11.7239 7 11.5 7.22386 11.5 7.5C11.5 7.77614 11.7239 8 12 8H14.5C14.7761 8 15 7.77614 15 7.5C15 7.22386 14.7761 7 14.5 7H12Z"
    fill="currentColor"
  ></path>
</symbol>
<symbol viewBox="0 0 15 15" fill="none" id="border-dotted">
  <path     fill-rule="evenodd"
    clip-rule="evenodd"
    d="M1.5 6.625C1.01675 6.625 0.625 7.01675 0.625 7.5C0.625 7.98325 1.01675 8.375 1.5 8.375C1.98325 8.375 2.375 7.98325 2.375 7.5C2.375 7.01675 1.98325 6.625 1.5 6.625ZM5.5 6.625C5.01675 6.625 4.625 7.01675 4.625 7.5C4.625 7.98325 5.01675 8.375 5.5 8.375C5.98325 8.375 6.375 7.98325 6.375 7.5C6.375 7.01675 5.98325 6.625 5.5 6.625ZM9.5 6.625C9.01675 6.625 8.625 7.01675 8.625 7.5C8.625 7.98325 9.01675 8.375 9.5 8.375C9.98325 8.375 10.375 7.98325 10.375 7.5C10.375 7.01675 9.98325 6.625 9.5 6.625ZM12.625 7.5C12.625 7.01675 13.0168 6.625 13.5 6.625C13.9832 6.625 14.375 7.01675 14.375 7.5C14.375 7.98325 13.9832 8.375 13.5 8.375C13.0168 8.375 12.625 7.98325 12.625 7.5Z"
    fill="currentColor"
  ></path>
</symbol>
<symbol viewBox="0 0 15 15" fill="none" id="border-left">
  <path fill-rule="evenodd" clip-rule="evenodd" d="M1.75 1L1.75 14L0.249999 14L0.25 1L1.75 1Z" fill="currentColor" ></path>
  <rect x="10" y="7" width="1" height="1" rx=".5" transform="rotate(90 10 7)" fill="currentColor" ></rect>
  <rect x="10" y="13" width="1" height="1" rx=".5" transform="rotate(90 10 13)" fill="currentColor" ></rect>
  <rect x="12" y="7" width="1" height="1" rx=".5" transform="rotate(90 12 7)" fill="currentColor" ></rect>
  <rect x="12" y="13" width="1" height="1" rx=".5" transform="rotate(90 12 13)" fill="currentColor" ></rect>
  <rect x="8" y="7" width="1" height="1" rx=".5" transform="rotate(90 8 7)" fill="currentColor" ></rect>
  <rect x="14" y="7" width="1" height="1" rx=".5" transform="rotate(90 14 7)" fill="currentColor" ></rect>
  <rect x="8" y="13" width="1" height="1" rx=".5" transform="rotate(90 8 13)" fill="currentColor" ></rect>
  <rect x="14" y="13" width="1" height="1" rx=".5" transform="rotate(90 14 13)" fill="currentColor" ></rect>
  <rect x="8" y="5" width="1" height="1" rx=".5" transform="rotate(90 8 5)" fill="currentColor" ></rect>
  <rect x="14" y="5" width="1" height="1" rx=".5" transform="rotate(90 14 5)" fill="currentColor" ></rect>
  <rect x="8" y="3" width="1" height="1" rx=".5" transform="rotate(90 8 3)" fill="currentColor" ></rect>
  <rect x="14" y="3" width="1" height="1" rx=".5" transform="rotate(90 14 3)" fill="currentColor" ></rect>
  <rect x="8" y="9" width="1" height="1" rx=".5" transform="rotate(90 8 9)" fill="currentColor" ></rect>
  <rect x="14" y="9" width="1" height="1" rx=".5" transform="rotate(90 14 9)" fill="currentColor" ></rect>
  <rect x="8" y="11" width="1" height="1" rx=".5" transform="rotate(90 8 11)" fill="currentColor" ></rect>
  <rect x="14" y="11" width="1" height="1" rx=".5" transform="rotate(90 14 11)" fill="currentColor" ></rect>
  <rect x="6" y="7" width="1" height="1" rx=".5" transform="rotate(90 6 7)" fill="currentColor" ></rect>
  <rect x="6" y="13" width="1" height="1" rx=".5" transform="rotate(90 6 13)" fill="currentColor" ></rect>
  <rect x="4" y="7" width="1" height="1" rx=".5" transform="rotate(90 4 7)" fill="currentColor" ></rect>
  <rect x="4" y="13" width="1" height="1" rx=".5" transform="rotate(90 4 13)" fill="currentColor" ></rect>
  <rect x="10" y="1" width="1" height="1" rx=".5" transform="rotate(90 10 1)" fill="currentColor" ></rect>
  <rect x="12" y="1" width="1" height="1" rx=".5" transform="rotate(90 12 1)" fill="currentColor" ></rect>
  <rect x="8" y="1" width="1" height="1" rx=".5" transform="rotate(90 8 1)" fill="currentColor" ></rect>
  <rect x="14" y="1" width="1" height="1" rx=".5" transform="rotate(90 14 1)" fill="currentColor" ></rect>
  <rect x="6" y="1" width="1" height="1" rx=".5" transform="rotate(90 6 1)" fill="currentColor" ></rect>
  <rect x="4" y="1" width="1" height="1" rx=".5" transform="rotate(90 4 1)" fill="currentColor" ></rect>
</symbol>
<symbol viewBox="0 0 15 15" fill="none" id="border-none">
  <rect x="7" y="5.025" width="1" height="1" rx=".5" fill="currentColor" ></rect>
  <rect x="13" y="5.025" width="1" height="1" rx=".5" fill="currentColor" ></rect>
  <rect x="7" y="3.025" width="1" height="1" rx=".5" fill="currentColor" ></rect>
  <rect x="13" y="3.025" width="1" height="1" rx=".5" fill="currentColor" ></rect>
  <rect x="7" y="7.025" width="1" height="1" rx=".5" fill="currentColor" ></rect>
  <rect x="7" y="13.025" width="1" height="1" rx=".5" fill="currentColor" ></rect>
  <rect x="7" y="1.025" width="1" height="1" rx=".5" fill="currentColor" ></rect>
  <rect x="13" y="7.025" width="1" height="1" rx=".5" fill="currentColor" ></rect>
  <rect x="13" y="13.025" width="1" height="1" rx=".5" fill="currentColor" ></rect>
  <rect x="13" y="1.025" width="1" height="1" rx=".5" fill="currentColor" ></rect>
  <rect x="5" y="7.025" width="1" height="1" rx=".5" fill="currentColor" ></rect>
  <rect x="5" y="13.025" width="1" height="1" rx=".5" fill="currentColor" ></rect>
  <rect x="5" y="1.025" width="1" height="1" rx=".5" fill="currentColor" ></rect>
  <rect x="3" y="7.025" width="1" height="1" rx=".5" fill="currentColor" ></rect>
  <rect x="3" y="13.025" width="1" height="1" rx=".5" fill="currentColor" ></rect>
  <rect x="3" y="1.025" width="1" height="1" rx=".5" fill="currentColor" ></rect>
  <rect x="9" y="7.025" width="1" height="1" rx=".5" fill="currentColor" ></rect>
  <rect x="9" y="13.025" width="1" height="1" rx=".5" fill="currentColor" ></rect>
  <rect x="9" y="1.025" width="1" height="1" rx=".5" fill="currentColor" ></rect>
  <rect x="11" y="7.025" width="1" height="1" rx=".5" fill="currentColor" ></rect>
  <rect x="11" y="13.025" width="1" height="1" rx=".5" fill="currentColor" ></rect>
  <rect x="11" y="1.025" width="1" height="1" rx=".5" fill="currentColor" ></rect>
  <rect x="7" y="9.025" width="1" height="1" rx=".5" fill="currentColor" ></rect>
  <rect x="13" y="9.025" width="1" height="1" rx=".5" fill="currentColor" ></rect>
  <rect x="7" y="11.025" width="1" height="1" rx=".5" fill="currentColor" ></rect>
  <rect x="13" y="11.025" width="1" height="1" rx=".5" fill="currentColor" ></rect>
  <rect x="1" y="5.025" width="1" height="1" rx=".5" fill="currentColor" ></rect>
  <rect x="1" y="3.025" width="1" height="1" rx=".5" fill="currentColor" ></rect>
  <rect x="1" y="7.025" width="1" height="1" rx=".5" fill="currentColor" ></rect>
  <rect x="1" y="13.025" width="1" height="1" rx=".5" fill="currentColor" ></rect>
  <rect x="1" y="1.025" width="1" height="1" rx=".5" fill="currentColor" ></rect>
  <rect x="1" y="9.025" width="1" height="1" rx=".5" fill="currentColor" ></rect>
  <rect x="1" y="11.025" width="1" height="1" rx=".5" fill="currentColor" ></rect>
</symbol>
<symbol viewBox="0 0 15 15" fill="none" id="border-right">
  <path fill-rule="evenodd" clip-rule="evenodd" d="M13.25 1L13.25 14L14.75 14L14.75 1L13.25 1Z" fill="currentColor" ></path>
  <rect width="1" height="1" rx=".5" transform="matrix(0 1 1 0 5 7)" fill="currentColor" ></rect>
  <rect width="1" height="1" rx=".5" transform="matrix(0 1 1 0 5 13)" fill="currentColor" ></rect>
  <rect width="1" height="1" rx=".5" transform="matrix(0 1 1 0 3 7)" fill="currentColor" ></rect>
  <rect width="1" height="1" rx=".5" transform="matrix(0 1 1 0 3 13)" fill="currentColor" ></rect>
  <rect width="1" height="1" rx=".5" transform="matrix(0 1 1 0 7 7)" fill="currentColor" ></rect>
  <rect width="1" height="1" rx=".5" transform="matrix(0 1 1 0 1 7)" fill="currentColor" ></rect>
  <rect width="1" height="1" rx=".5" transform="matrix(0 1 1 0 7 13)" fill="currentColor" ></rect>
  <rect width="1" height="1" rx=".5" transform="matrix(0 1 1 0 1 13)" fill="currentColor" ></rect>
  <rect width="1" height="1" rx=".5" transform="matrix(0 1 1 0 7 5)" fill="currentColor" ></rect>
  <rect width="1" height="1" rx=".5" transform="matrix(0 1 1 0 1 5)" fill="currentColor" ></rect>
  <rect width="1" height="1" rx=".5" transform="matrix(0 1 1 0 7 3)" fill="currentColor" ></rect>
  <rect width="1" height="1" rx=".5" transform="matrix(0 1 1 0 1 3)" fill="currentColor" ></rect>
  <rect width="1" height="1" rx=".5" transform="matrix(0 1 1 0 7 9)" fill="currentColor" ></rect>
  <rect width="1" height="1" rx=".5" transform="matrix(0 1 1 0 1 9)" fill="currentColor" ></rect>
  <rect width="1" height="1" rx=".5" transform="matrix(0 1 1 0 7 11)" fill="currentColor" ></rect>
  <rect width="1" height="1" rx=".5" transform="matrix(0 1 1 0 1 11)" fill="currentColor" ></rect>
  <rect width="1" height="1" rx=".5" transform="matrix(0 1 1 0 9 7)" fill="currentColor" ></rect>
  <rect width="1" height="1" rx=".5" transform="matrix(0 1 1 0 9 13)" fill="currentColor" ></rect>
  <rect width="1" height="1" rx=".5" transform="matrix(0 1 1 0 11 7)" fill="currentColor" ></rect>
  <rect width="1" height="1" rx=".5" transform="matrix(0 1 1 0 11 13)" fill="currentColor" ></rect>
  <rect width="1" height="1" rx=".5" transform="matrix(0 1 1 0 5 1)" fill="currentColor" ></rect>
  <rect width="1" height="1" rx=".5" transform="matrix(0 1 1 0 3 1)" fill="currentColor" ></rect>
  <rect width="1" height="1" rx=".5" transform="matrix(0 1 1 0 7 1)" fill="currentColor" ></rect>
  <rect width="1" height="1" rx=".5" transform="matrix(0 1 1 0 1 1)" fill="currentColor" ></rect>
  <rect width="1" height="1" rx=".5" transform="matrix(0 1 1 0 9 1)" fill="currentColor" ></rect>
  <rect width="1" height="1" rx=".5" transform="matrix(0 1 1 0 11 1)" fill="currentColor" ></rect>
</symbol>
<symbol viewBox="0 0 15 15" fill="none" id="border-solid">
  <path     fill-rule="evenodd"
    clip-rule="evenodd"
    d="M1.25 7.5C1.25 7.22386 1.47386 7 1.75 7H13.25C13.5261 7 13.75 7.22386 13.75 7.5C13.75 7.77614 13.5261 8 13.25 8H1.75C1.47386 8 1.25 7.77614 1.25 7.5Z"
    fill="currentColor"
  ></path>
</symbol>
<symbol viewBox="0 0 15 15" fill="none" id="border-split">
  <rect x="7" y="5.025" width="1" height="1" rx=".5" fill="currentColor" ></rect>
  <rect x="7" y="3.025" width="1" height="1" rx=".5" fill="currentColor" ></rect>
  <rect x="7" y="7.025" width="1" height="1" rx=".5" fill="currentColor" ></rect>
  <rect x="7" y="13.025" width="1" height="1" rx=".5" fill="currentColor" ></rect>
  <rect x="7" y="1.025" width="1" height="1" rx=".5" fill="currentColor" ></rect>
  <rect x="13" y="7.025" width="1" height="1" rx=".5" fill="currentColor" ></rect>
  <rect x="5" y="7.025" width="1" height="1" rx=".5" fill="currentColor" ></rect>
  <rect x="3" y="7.025" width="1" height="1" rx=".5" fill="currentColor" ></rect>
  <rect x="9" y="7.025" width="1" height="1" rx=".5" fill="currentColor" ></rect>
  <rect x="11" y="7.025" width="1" height="1" rx=".5" fill="currentColor" ></rect>
  <rect x="7" y="9.025" width="1" height="1" rx=".5" fill="currentColor" ></rect>
  <rect x="7" y="11.025" width="1" height="1" rx=".5" fill="currentColor" ></rect>
  <rect x="1" y="7.025" width="1" height="1" rx=".5" fill="currentColor" ></rect>
  <path     fill-rule="evenodd"
    clip-rule="evenodd"
    d="M1 1.49994C1 1.2238 1.22386 0.999939 1.5 0.999939H6V1.99994H2V5.99994H1V1.49994ZM13 1.99994H9V0.999939H13.5C13.7761 0.999939 14 1.2238 14 1.49994V5.99994H13V1.99994ZM1 13.4999V8.99994H2V12.9999H6V13.9999H1.5C1.22386 13.9999 1 13.7761 1 13.4999ZM13 12.9999V8.99994H14V13.4999C14 13.7761 13.7761 13.9999 13.5 13.9999H9.5V12.9999H13Z"
    fill="currentColor"
  ></path>
</symbol>
<symbol viewBox="0 0 15 15" fill="none" id="border-style">
  <path     fill-rule="evenodd"
    clip-rule="evenodd"
    d="M1.5 3C1.22386 3 1 3.22386 1 3.5C1 3.77614 1.22386 4 1.5 4H13.5C13.7761 4 14 3.77614 14 3.5C14 3.22386 13.7761 3 13.5 3H1.5ZM1 7.5C1 7.22386 1.22386 7 1.5 7H3.5C3.77614 7 4 7.22386 4 7.5C4 7.77614 3.77614 8 3.5 8H1.5C1.22386 8 1 7.77614 1 7.5ZM1 11.5C1 11.2239 1.22386 11 1.5 11C1.77614 11 2 11.2239 2 11.5C2 11.7761 1.77614 12 1.5 12C1.22386 12 1 11.7761 1 11.5ZM3 11.5C3 11.2239 3.22386 11 3.5 11C3.77614 11 4 11.2239 4 11.5C4 11.7761 3.77614 12 3.5 12C3.22386 12 3 11.7761 3 11.5ZM5.5 11C5.22386 11 5 11.2239 5 11.5C5 11.7761 5.22386 12 5.5 12C5.77614 12 6 11.7761 6 11.5C6 11.2239 5.77614 11 5.5 11ZM7 11.5C7 11.2239 7.22386 11 7.5 11C7.77614 11 8 11.2239 8 11.5C8 11.7761 7.77614 12 7.5 12C7.22386 12 7 11.7761 7 11.5ZM9.5 11C9.22386 11 9 11.2239 9 11.5C9 11.7761 9.22386 12 9.5 12C9.77614 12 10 11.7761 10 11.5C10 11.2239 9.77614 11 9.5 11ZM11 11.5C11 11.2239 11.2239 11 11.5 11C11.7761 11 12 11.2239 12 11.5C12 11.7761 11.7761 12 11.5 12C11.2239 12 11 11.7761 11 11.5ZM13.5 11C13.2239 11 13 11.2239 13 11.5C13 11.7761 13.2239 12 13.5 12C13.7761 12 14 11.7761 14 11.5C14 11.2239 13.7761 11 13.5 11ZM6.5 7C6.22386 7 6 7.22386 6 7.5C6 7.77614 6.22386 8 6.5 8H8.5C8.77614 8 9 7.77614 9 7.5C9 7.22386 8.77614 7 8.5 7H6.5ZM11 7.5C11 7.22386 11.2239 7 11.5 7H13.5C13.7761 7 14 7.22386 14 7.5C14 7.77614 13.7761 8 13.5 8H11.5C11.2239 8 11 7.77614 11 7.5Z"
    fill="currentColor"
  ></path>
</symbol>
<symbol viewBox="0 0 15 15" fill="none" id="border-top">
  <path fill-rule="evenodd" clip-rule="evenodd" d="M14 1.75L1 1.75L1 0.249999L14 0.25L14 1.75Z" fill="currentColor" ></path>
  <rect x="8" y="10" width="1" height="1" rx=".5" transform="rotate(-180 8 10)" fill="currentColor" ></rect>
  <rect x="2" y="10" width="1" height="1" rx=".5" transform="rotate(-180 2 10)" fill="currentColor" ></rect>
  <rect x="8" y="12" width="1" height="1" rx=".5" transform="rotate(-180 8 12)" fill="currentColor" ></rect>
  <rect x="2" y="12" width="1" height="1" rx=".5" transform="rotate(-180 2 12)" fill="currentColor" ></rect>
  <rect x="8" y="8" width="1" height="1" rx=".5" transform="rotate(-180 8 8)" fill="currentColor" ></rect>
  <rect x="8" y="14" width="1" height="1" rx=".5" transform="rotate(-180 8 14)" fill="currentColor" ></rect>
  <rect x="2" y="8" width="1" height="1" rx=".5" transform="rotate(-180 2 8)" fill="currentColor" ></rect>
  <rect x="2" y="14" width="1" height="1" rx=".5" transform="rotate(-180 2 14)" fill="currentColor" ></rect>
  <rect x="10" y="8" width="1" height="1" rx=".5" transform="rotate(-180 10 8)" fill="currentColor" ></rect>
  <rect x="10" y="14" width="1" height="1" rx=".5" transform="rotate(-180 10 14)" fill="currentColor" ></rect>
  <rect x="12" y="8" width="1" height="1" rx=".5" transform="rotate(-180 12 8)" fill="currentColor" ></rect>
  <rect x="12" y="14" width="1" height="1" rx=".5" transform="rotate(-180 12 14)" fill="currentColor" ></rect>
  <rect x="6" y="8" width="1" height="1" rx=".5" transform="rotate(-180 6 8)" fill="currentColor" ></rect>
  <rect x="6" y="14" width="1" height="1" rx=".5" transform="rotate(-180 6 14)" fill="currentColor" ></rect>
  <rect x="4" y="8" width="1" height="1" rx=".5" transform="rotate(-180 4 8)" fill="currentColor" ></rect>
  <rect x="4" y="14" width="1" height="1" rx=".5" transform="rotate(-180 4 14)" fill="currentColor" ></rect>
  <rect x="8" y="6" width="1" height="1" rx=".5" transform="rotate(-180 8 6)" fill="currentColor" ></rect>
  <rect x="2" y="6" width="1" height="1" rx=".5" transform="rotate(-180 2 6)" fill="currentColor" ></rect>
  <rect x="8" y="4" width="1" height="1" rx=".5" transform="rotate(-180 8 4)" fill="currentColor" ></rect>
  <rect x="2" y="4" width="1" height="1" rx=".5" transform="rotate(-180 2 4)" fill="currentColor" ></rect>
  <rect x="14" y="10" width="1" height="1" rx=".5" transform="rotate(-180 14 10)" fill="currentColor" ></rect>
  <rect x="14" y="12" width="1" height="1" rx=".5" transform="rotate(-180 14 12)" fill="currentColor" ></rect>
  <rect x="14" y="8" width="1" height="1" rx=".5" transform="rotate(-180 14 8)" fill="currentColor" ></rect>
  <rect x="14" y="14" width="1" height="1" rx=".5" transform="rotate(-180 14 14)" fill="currentColor" ></rect>
  <rect x="14" y="6" width="1" height="1" rx=".5" transform="rotate(-180 14 6)" fill="currentColor" ></rect>
  <rect x="14" y="4" width="1" height="1" rx=".5" transform="rotate(-180 14 4)" fill="currentColor" ></rect>
</symbol>
<symbol viewBox="0 0 15 15" fill="none" id="border-width">
  <path     fill-rule="evenodd"
    clip-rule="evenodd"
    d="M1 3H14V4H1V3ZM1 6H14V8H1V6ZM14 10.25H1V12.75H14V10.25Z"
    fill="currentColor"
  ></path>
</symbol>
<symbol viewBox="0 0 15 15" fill="none" id="box-model">
  <path     fill-rule="evenodd"
    clip-rule="evenodd"
    d="M1.99998 0.999976C1.44769 0.999976 0.999976 1.44769 0.999976 1.99998V13C0.999976 13.5523 1.44769 14 1.99998 14H13C13.5523 14 14 13.5523 14 13V1.99998C14 1.44769 13.5523 0.999976 13 0.999976H1.99998ZM1.99998 1.99998L13 1.99998V13H1.99998V1.99998ZM4.49996 3.99996C4.22382 3.99996 3.99996 4.22382 3.99996 4.49996V10.5C3.99996 10.7761 4.22382 11 4.49996 11H10.5C10.7761 11 11 10.7761 11 10.5V4.49996C11 4.22382 10.7761 3.99996 10.5 3.99996H4.49996ZM4.99996 9.99996V4.99996H9.99996V9.99996H4.99996Z"
    fill="currentColor"
  ></path>
</symbol>
<symbol viewBox="0 0 15 15" fill="none" id="box">
  <path     fill-rule="evenodd"
    clip-rule="evenodd"
    d="M12.5 2H2.5C2.22386 2 2 2.22386 2 2.5V12.5C2 12.7761 2.22386 13 2.5 13H12.5C12.7761 13 13 12.7761 13 12.5V2.5C13 2.22386 12.7761 2 12.5 2ZM2.5 1C1.67157 1 1 1.67157 1 2.5V12.5C1 13.3284 1.67157 14 2.5 14H12.5C13.3284 14 14 13.3284 14 12.5V2.5C14 1.67157 13.3284 1 12.5 1H2.5Z"
    fill="currentColor"
  ></path>
</symbol>
<symbol viewBox="0 0 15 15" fill="none" id="button">
  <path     fill-rule="evenodd"
    clip-rule="evenodd"
    d="M2 5H13C13.5523 5 14 5.44772 14 6V9C14 9.55228 13.5523 10 13 10H2C1.44772 10 1 9.55228 1 9V6C1 5.44772 1.44772 5 2 5ZM0 6C0 4.89543 0.895431 4 2 4H13C14.1046 4 15 4.89543 15 6V9C15 10.1046 14.1046 11 13 11H2C0.89543 11 0 10.1046 0 9V6ZM4.5 6.75C4.08579 6.75 3.75 7.08579 3.75 7.5C3.75 7.91421 4.08579 8.25 4.5 8.25C4.91421 8.25 5.25 7.91421 5.25 7.5C5.25 7.08579 4.91421 6.75 4.5 6.75ZM6.75 7.5C6.75 7.08579 7.08579 6.75 7.5 6.75C7.91421 6.75 8.25 7.08579 8.25 7.5C8.25 7.91421 7.91421 8.25 7.5 8.25C7.08579 8.25 6.75 7.91421 6.75 7.5ZM10.5 6.75C10.0858 6.75 9.75 7.08579 9.75 7.5C9.75 7.91421 10.0858 8.25 10.5 8.25C10.9142 8.25 11.25 7.91421 11.25 7.5C11.25 7.08579 10.9142 6.75 10.5 6.75Z"
    fill="currentColor"
  ></path>
</symbol>
<symbol viewBox="0 0 15 15" fill="none" id="chat-bubble">
  <path     fill-rule="evenodd"
    clip-rule="evenodd"
    d="M12.5 3L2.5 3.00002C1.67157 3.00002 1 3.6716 1 4.50002V9.50003C1 10.3285 1.67157 11 2.5 11H7.50003C7.63264 11 7.75982 11.0527 7.85358 11.1465L10 13.2929V11.5C10 11.2239 10.2239 11 10.5 11H12.5C13.3284 11 14 10.3285 14 9.50003V4.5C14 3.67157 13.3284 3 12.5 3ZM2.49999 2.00002L12.5 2C13.8807 2 15 3.11929 15 4.5V9.50003C15 10.8807 13.8807 12 12.5 12H11V14.5C11 14.7022 10.8782 14.8845 10.6913 14.9619C10.5045 15.0393 10.2894 14.9965 10.1464 14.8536L7.29292 12H2.5C1.11929 12 0 10.8807 0 9.50003V4.50002C0 3.11931 1.11928 2.00003 2.49999 2.00002Z"
    fill="currentColor"
  ></path>
</symbol>
<symbol viewBox="0 0 15 15" fill="none" id="checkbox">
  <path     fill-rule="evenodd"
    clip-rule="evenodd"
    d="M3 3H12V12H3L3 3ZM2 3C2 2.44771 2.44772 2 3 2H12C12.5523 2 13 2.44772 13 3V12C13 12.5523 12.5523 13 12 13H3C2.44771 13 2 12.5523 2 12V3ZM10.3498 5.51105C10.506 5.28337 10.4481 4.97212 10.2204 4.81587C9.99275 4.65961 9.6815 4.71751 9.52525 4.94519L6.64048 9.14857L5.19733 7.40889C5.02102 7.19635 4.7058 7.16699 4.49327 7.34329C4.28073 7.5196 4.25137 7.83482 4.42767 8.04735L6.2934 10.2964C6.39348 10.4171 6.54437 10.4838 6.70097 10.4767C6.85757 10.4695 7.00177 10.3894 7.09047 10.2601L10.3498 5.51105Z"
    fill="currentColor"
  ></path>
</symbol>
<symbol viewBox="0 0 15 15" fill="none" id="circle-backslash">
  <path     fill-rule="evenodd"
    clip-rule="evenodd"
    d="M7.49991 0.877075C3.84222 0.877075 0.877075 3.84222 0.877075 7.49991C0.877075 11.1576 3.84222 14.1227 7.49991 14.1227C11.1576 14.1227 14.1227 11.1576 14.1227 7.49991C14.1227 3.84222 11.1576 0.877075 7.49991 0.877075ZM3.85768 3.15057C4.84311 2.32448 6.11342 1.82708 7.49991 1.82708C10.6329 1.82708 13.1727 4.36689 13.1727 7.49991C13.1727 8.88638 12.6753 10.1567 11.8492 11.1421L3.85768 3.15057ZM3.15057 3.85768C2.32448 4.84311 1.82708 6.11342 1.82708 7.49991C1.82708 10.6329 4.36689 13.1727 7.49991 13.1727C8.88638 13.1727 10.1567 12.6753 11.1421 11.8492L3.15057 3.85768Z"
    fill="currentColor"
  ></path>
</symbol>
<symbol viewBox="0 0 15 15" fill="none" id="clipboard-copy">
  <path     fill-rule="evenodd"
    clip-rule="evenodd"
    d="M5 2V1H10V2H5ZM4.75 0C4.33579 0 4 0.335786 4 0.75V1H3.5C2.67157 1 2 1.67157 2 2.5V12.5C2 13.3284 2.67157 14 3.5 14H7V13H3.5C3.22386 13 3 12.7761 3 12.5V2.5C3 2.22386 3.22386 2 3.5 2H4V2.25C4 2.66421 4.33579 3 4.75 3H10.25C10.6642 3 11 2.66421 11 2.25V2H11.5C11.7761 2 12 2.22386 12 2.5V7H13V2.5C13 1.67157 12.3284 1 11.5 1H11V0.75C11 0.335786 10.6642 0 10.25 0H4.75ZM9 8.5C9 8.77614 8.77614 9 8.5 9C8.22386 9 8 8.77614 8 8.5C8 8.22386 8.22386 8 8.5 8C8.77614 8 9 8.22386 9 8.5ZM10.5 9C10.7761 9 11 8.77614 11 8.5C11 8.22386 10.7761 8 10.5 8C10.2239 8 10 8.22386 10 8.5C10 8.77614 10.2239 9 10.5 9ZM13 8.5C13 8.77614 12.7761 9 12.5 9C12.2239 9 12 8.77614 12 8.5C12 8.22386 12.2239 8 12.5 8C12.7761 8 13 8.22386 13 8.5ZM14.5 9C14.7761 9 15 8.77614 15 8.5C15 8.22386 14.7761 8 14.5 8C14.2239 8 14 8.22386 14 8.5C14 8.77614 14.2239 9 14.5 9ZM15 10.5C15 10.7761 14.7761 11 14.5 11C14.2239 11 14 10.7761 14 10.5C14 10.2239 14.2239 10 14.5 10C14.7761 10 15 10.2239 15 10.5ZM14.5 13C14.7761 13 15 12.7761 15 12.5C15 12.2239 14.7761 12 14.5 12C14.2239 12 14 12.2239 14 12.5C14 12.7761 14.2239 13 14.5 13ZM14.5 15C14.7761 15 15 14.7761 15 14.5C15 14.2239 14.7761 14 14.5 14C14.2239 14 14 14.2239 14 14.5C14 14.7761 14.2239 15 14.5 15ZM8.5 11C8.77614 11 9 10.7761 9 10.5C9 10.2239 8.77614 10 8.5 10C8.22386 10 8 10.2239 8 10.5C8 10.7761 8.22386 11 8.5 11ZM9 12.5C9 12.7761 8.77614 13 8.5 13C8.22386 13 8 12.7761 8 12.5C8 12.2239 8.22386 12 8.5 12C8.77614 12 9 12.2239 9 12.5ZM8.5 15C8.77614 15 9 14.7761 9 14.5C9 14.2239 8.77614 14 8.5 14C8.22386 14 8 14.2239 8 14.5C8 14.7761 8.22386 15 8.5 15ZM11 14.5C11 14.7761 10.7761 15 10.5 15C10.2239 15 10 14.7761 10 14.5C10 14.2239 10.2239 14 10.5 14C10.7761 14 11 14.2239 11 14.5ZM12.5 15C12.7761 15 13 14.7761 13 14.5C13 14.2239 12.7761 14 12.5 14C12.2239 14 12 14.2239 12 14.5C12 14.7761 12.2239 15 12.5 15Z"
    fill="currentColor"
  ></path>
</symbol>
<symbol viewBox="0 0 15 15" fill="none" id="clipboard">
  <path     fill-rule="evenodd"
    clip-rule="evenodd"
    d="M5 2V1H10V2H5ZM4.75 0C4.33579 0 4 0.335786 4 0.75V1H3.5C2.67157 1 2 1.67157 2 2.5V12.5C2 13.3284 2.67157 14 3.5 14H11.5C12.3284 14 13 13.3284 13 12.5V2.5C13 1.67157 12.3284 1 11.5 1H11V0.75C11 0.335786 10.6642 0 10.25 0H4.75ZM11 2V2.25C11 2.66421 10.6642 3 10.25 3H4.75C4.33579 3 4 2.66421 4 2.25V2H3.5C3.22386 2 3 2.22386 3 2.5V12.5C3 12.7761 3.22386 13 3.5 13H11.5C11.7761 13 12 12.7761 12 12.5V2.5C12 2.22386 11.7761 2 11.5 2H11Z"
    fill="currentColor"
  ></path>
</symbol>
<symbol viewBox="0 0 15 15" fill="none" id="codesandbox-logo">
  <path     fill-rule="evenodd"
    clip-rule="evenodd"
    d="M7.71144 0.796902C7.57741 0.734357 7.42257 0.734357 7.28855 0.796902L1.28855 3.5969C1.11251 3.67905 0.999993 3.85573 0.999993 4.04999V10.95C0.999993 11.1443 1.11251 11.3209 1.28855 11.4031L7.28855 14.2031C7.42257 14.2656 7.57741 14.2656 7.71144 14.2031L13.7114 11.4031C13.8875 11.3209 14 11.1443 14 10.95V4.04999C14 3.85573 13.8875 3.67905 13.7114 3.5969L7.71144 0.796902ZM7.49999 3.15674L5.98039 2.51091L7.49999 1.80176L9.01959 2.51091L7.49999 3.15674ZM7.69556 4.16018L10.2382 3.07958L12.2719 4.02865L7.49999 6.05671L2.72808 4.02865L4.76181 3.07958L7.30442 4.16018C7.42939 4.2133 7.57059 4.2133 7.69556 4.16018ZM7.99999 6.93078L13 4.80578V7.92966L11.0821 8.8119C10.7273 8.97509 10.5 9.32988 10.5 9.72039V11.7982L7.99999 12.9649V6.93078ZM11.5 11.3316L13 10.6316V9.03039L11.5 9.72039V11.3316ZM6.99999 6.93078V12.9649L4.50231 11.7993V9.72036C4.50231 9.32985 4.27499 8.97506 3.92022 8.81187L1.99999 7.92856V4.80578L6.99999 6.93078ZM1.99999 10.6316L3.50231 11.3326L3.50231 9.72036L1.99999 9.02929V10.6316Z"
    fill="currentColor"
  ></path>
</symbol>
<symbol viewBox="0 0 15 15" fill="none" id="component-boolean">
  <path     fill-rule="evenodd"
    clip-rule="evenodd"
    d="M7.85367 1.48956C7.65841 1.29429 7.34182 1.29429 7.14656 1.48956L1.48971 7.14641C1.29445 7.34167 1.29445 7.65825 1.48971 7.85352L7.14656 13.5104C7.34182 13.7056 7.65841 13.7056 7.85367 13.5104L13.5105 7.85352C13.7058 7.65825 13.7058 7.34167 13.5105 7.14641L7.85367 1.48956ZM7.5 2.55033L2.55037 7.49996L7.5 12.4496V2.55033Z"
    fill="currentColor"
  ></path>
</symbol>
<symbol viewBox="0 0 15 15" fill="none" id="corner-bottom-left">
  <path     fill-rule="evenodd"
    clip-rule="evenodd"
    d="M9.87737 12H9.9H11.5C11.7761 12 12 11.7761 12 11.5C12 11.2239 11.7761 11 11.5 11H9.9C8.77164 11 7.95545 10.9996 7.31352 10.9472C6.67744 10.8952 6.25662 10.7946 5.91103 10.6185C5.25247 10.283 4.71703 9.74753 4.38148 9.08897C4.20539 8.74338 4.10481 8.32256 4.05284 7.68648C4.00039 7.04455 4 6.22836 4 5.1V3.5C4 3.22386 3.77614 3 3.5 3C3.22386 3 3 3.22386 3 3.5V5.1V5.12263C3 6.22359 3 7.08052 3.05616 7.76791C3.11318 8.46584 3.23058 9.0329 3.49047 9.54296C3.9219 10.3897 4.61031 11.0781 5.45704 11.5095C5.9671 11.7694 6.53416 11.8868 7.23209 11.9438C7.91948 12 8.77641 12 9.87737 12Z"
    fill="currentColor"
  ></path>
</symbol>
<symbol viewBox="0 0 15 15" fill="none" id="corner-bottom-right">
  <path     fill-rule="evenodd"
    clip-rule="evenodd"
    d="M5.12263 12H5.1H3.5C3.22386 12 3 11.7761 3 11.5C3 11.2239 3.22386 11 3.5 11H5.1C6.22836 11 7.04455 10.9996 7.68648 10.9472C8.32256 10.8952 8.74338 10.7946 9.08897 10.6185C9.74753 10.283 10.283 9.74753 10.6185 9.08897C10.7946 8.74338 10.8952 8.32256 10.9472 7.68648C10.9996 7.04455 11 6.22836 11 5.1V3.5C11 3.22386 11.2239 3 11.5 3C11.7761 3 12 3.22386 12 3.5V5.1V5.12263C12 6.22359 12 7.08052 11.9438 7.76791C11.8868 8.46584 11.7694 9.0329 11.5095 9.54296C11.0781 10.3897 10.3897 11.0781 9.54296 11.5095C9.0329 11.7694 8.46584 11.8868 7.76791 11.9438C7.08052 12 6.22359 12 5.12263 12Z"
    fill="currentColor"
  ></path>
</symbol>
<symbol viewBox="0 0 15 15" fill="none" id="cube">
  <path     fill-rule="evenodd"
    clip-rule="evenodd"
    d="M7.28856 0.796908C7.42258 0.734364 7.57742 0.734364 7.71144 0.796908L13.7114 3.59691C13.8875 3.67906 14 3.85574 14 4.05V10.95C14 11.1443 13.8875 11.3209 13.7114 11.4031L7.71144 14.2031C7.57742 14.2656 7.42258 14.2656 7.28856 14.2031L1.28856 11.4031C1.11252 11.3209 1 11.1443 1 10.95V4.05C1 3.85574 1.11252 3.67906 1.28856 3.59691L7.28856 0.796908ZM2 4.80578L7 6.93078V12.9649L2 10.6316V4.80578ZM8 12.9649L13 10.6316V4.80578L8 6.93078V12.9649ZM7.5 6.05672L12.2719 4.02866L7.5 1.80176L2.72809 4.02866L7.5 6.05672Z"
    fill="currentColor"
  ></path>
</symbol>
</defs>
</svg>
